<?xml version="1.0" standalone="no"?>
<!DOCTYPE svg PUBLIC "-//W3C//DTD SVG 1.1//EN" "http://www.w3.org/Graphics/SVG/1.1/DTD/svg11.dtd" >
<svg xmlns="http://www.w3.org/2000/svg" xmlns:xlink="http://www.w3.org/1999/xlink" version="1.1">
<metadata></metadata>
<defs>
<font id="amphoraregular" horiz-adv-x="870" >
<font-face units-per-em="2048" ascent="1638" descent="-410" />
<missing-glyph horiz-adv-x="356" />
<glyph horiz-adv-x="0" />
<glyph unicode="&#xd;" horiz-adv-x="356" />
<glyph unicode=" "  horiz-adv-x="356" />
<glyph unicode="&#x09;" horiz-adv-x="356" />
<glyph unicode="&#xa0;" horiz-adv-x="356" />
<glyph unicode="!" horiz-adv-x="366" d="M84 1157v25h225v-25h-80v-942h-71v942h-74zM141 25q0 51 56 51q53 0 53 -51q0 -53 -53 -54q-55 0 -56 54z" />
<glyph unicode="&#x22;" horiz-adv-x="536" d="M121 1341q0 113 69 113q58 0 58 -123q0 -96 -17 -239q-27 -221 -28 -240h-35q-47 414 -47 489zM336 1339q0 115 65 115q58 0 58 -127q0 -96 -17 -237q-12 -119 -26 -238h-39q-12 123 -27 244q-14 145 -14 243z" />
<glyph unicode="#" horiz-adv-x="968" d="M14 248l17 49h213l80 219h-213l16 53h211l111 295h73l-102 -295h203l106 295h76l-103 -295h209l-18 -57h-211l-78 -215h211l-16 -51h-211l-107 -295h-75l102 295h-207l-108 -295h-70l98 297h-207zM324 297h204l74 215h-205z" />
<glyph unicode="$" horiz-adv-x="753" d="M66 240v157q78 -80 135 -106q43 -20 166 -45v241q-274 53 -275 181q0 160 275 159v138h32v-140l125 -24q76 -16 127 -13v-120q-68 98 -252 118v-200q131 -29 183 -56q98 -51 98 -147q0 -180 -281 -180v-140h-32v142q-29 4 -123 22q-80 18 -125 19q-29 0 -53 -6zM176 700 q1 -77 191 -110v201q-190 0 -191 -91zM399 240h33q164 0 164 104t-197 137v-241z" />
<glyph unicode="%" horiz-adv-x="1208" d="M74 627q0 109 47 190q55 98 155 98q102 0 163 -74.5t61 -176.5q0 -311 -211 -312q-109 0 -166 86q-49 74 -49 189zM152 633q0 -115 20 -166q31 -88 125 -88q121 0 121 244q0 117 -17 172q-31 98 -120 98q-129 0 -129 -260zM295 -31l586 967h34l-579 -967h-41zM707 274 q0 102 49 187q55 98 151 98q111 0 172 -82q56 -73 56 -188q0 -113 -43 -193q-55 -100 -160 -100q-117 0 -174 84q-51 74 -51 194zM786 274q0 -252 129 -251q138 -1 138 249q0 264 -125 265q-141 0 -142 -263z" />
<glyph unicode="&#x26;" horiz-adv-x="1007" d="M96 262q0 190 250 363q-94 137 -108 161q-61 104 -62 179q0 96 68.5 153.5t167.5 57.5q80 0 139 -43q68 -47 67 -125q0 -74 -47 -146l-30 10q27 55 26 123q0 72 -47 111t-119 39q-66 0 -107.5 -47t-41.5 -113q0 -74 186 -350q104 -145 207 -291q33 152 49 191 q47 121 129 120q59 0 60 -65q0 -45 -58 -45q-45 0 -49 51q-41 -12 -69 -129q-18 -82 -37 -162l192 -280h96v-25h-294v25h90l-125 184q-106 -193 -289 -193q-111 0 -177.5 68t-66.5 178zM168 311q0 -92 64.5 -162.5t156.5 -70.5q133 0 215 164l-246 362q-100 -86 -131 -125 q-59 -76 -59 -168z" />
<glyph unicode="'" horiz-adv-x="307" d="M104 1341q0 113 70 113q57 0 57 -123q0 -98 -16 -239q-14 -121 -29 -240h-34q-47 414 -48 489z" />
<glyph unicode="(" horiz-adv-x="464" d="M88 702q0 453 297 871l21 -14q-227 -352 -228 -811q1 -496 228 -912l-23 -6q-150 229 -215 414q-80 217 -80 458z" />
<glyph unicode=")" horiz-adv-x="466" d="M72 -164q225 408 225 903q0 479 -225 820l20 14q297 -414 297 -877q0 -236 -80 -454q-68 -188 -215 -412z" />
<glyph unicode="*" horiz-adv-x="606" d="M96 1071q0 39 68 59q49 10 98 23l12 -18q-106 -106 -135 -107q-14 0 -28.5 14.5t-14.5 28.5zM96 1284q0 43 45 43q29 0 133 -104l-12 -19q-49 12 -98 23q-68 20 -68 57zM274 967q0 43 33 151h29q26 -102 26 -149q0 -57 -45 -58q-43 0 -43 56zM274 1384q0 57 48 58 q40 -1 40 -56q0 -45 -26 -151h-29q-33 125 -33 149zM369 1137l12 20q164 -35 164 -80q0 -41 -43 -41q-33 0 -133 101zM369 1221q33 31 65 63q45 37 78 37t33 -39q0 -33 -66 -57q-6 -2 -98 -25z" />
<glyph unicode="+" horiz-adv-x="821" d="M8 342v57h348v344h58v-344h346v-57h-346v-342h-58v342h-348z" />
<glyph unicode="," horiz-adv-x="251" d="M84 29q0 61 66 61q51 0 51 -61q0 -41 -28 -88t-64 -64l-11 6q41 45 43 76q-57 23 -57 70z" />
<glyph unicode="-" horiz-adv-x="432" d="M90 260v92h293v-92h-293z" />
<glyph unicode="." horiz-adv-x="247" d="M82 29q0 53 57 53q54 0 54 -53q0 -55 -56 -56q-55 0 -55 56z" />
<glyph unicode="/" horiz-adv-x="886" d="M84 -37l692 1512h51l-692 -1512h-51z" />
<glyph unicode="0" d="M123 412q0 186 67 331q86 188 248 189q158 0 242 -184q65 -144 65 -320q0 -178 -59 -301q-80 -162 -237 -162q-156 0 -248 152q-78 129 -78 295zM223 485q0 -496 217 -495q205 0 205 428q0 207 -22 301q-45 190 -187 190q-213 0 -213 -424z" />
<glyph unicode="1" d="M281 0v25h108v872h-108v25h204v-897h109v-25h-313z" />
<glyph unicode="2" d="M135 719q0 109 92 166q80 49 195 49q125 0 225 -70q115 -77 115 -196q0 -115 -105 -185q-113 -57 -223 -112q-145 -72 -205 -170q-33 -53 -32 -107h393q57 0 80.5 9.5t56.5 52.5h29l-111 -156h-500q16 209 148 315q117 70 233 140q123 80 123 227q0 111 -68.5 168 t-181.5 57q-238 0 -231 -190l2 -8q31 31 74 30q18 0 34.5 -18.5t16.5 -36.5q0 -76 -76 -76q-39 0 -61.5 35t-22.5 76z" />
<glyph unicode="3" d="M106 772l93 150h501l-254 -342q127 -18 220 -95q108 -85 108 -204q0 -141 -125 -232q-113 -84 -260 -84q-92 0 -180 49q-100 57 -100 144q0 33 19 62.5t50 29.5q66 0 66 -60q0 -61 -60 -61q-14 0 -26 6q12 -70 90 -110q68 -37 145 -37q117 0 190.5 75.5t73.5 192.5 q0 262 -229 299l-70 -94l-22 12l262 356h-428l-45 -71z" />
<glyph unicode="4" d="M66 141l452 781h92v-754q88 0 117 24.5t43 112.5h14l2 -164h-176v-116h127v-25h-364v25h139v116h-446zM113 166h399v686z" />
<glyph unicode="5" d="M131 156q0 74 70 73q49 0 49 -49q0 -63 -49 -63l-2 -23q-4 -51 67 -80q57 -23 119 -22q242 0 242 246q0 319 -256 319q-90 0 -217 -80v445h571q-2 -92 -125 -93h-424v-309q98 66 209 66q137 0 244.5 -90.5t107.5 -223.5q0 -135 -114 -225q-104 -82 -246 -82 q-88 0 -162 51q-84 55 -84 140z" />
<glyph unicode="6" d="M106 440q0 199 89 334q102 158 292 158q88 0 158 -43q82 -49 82 -133q0 -78 -72 -78q-53 0 -53 61q0 45 60 56q0 55 -66 90q-53 27 -115 26q-266 0 -266 -467q0 -188 35 -288q55 -162 207 -162q111 0 166 92q45 76 45 195q0 88 -37 159q-43 90 -123 90q-72 0 -152 -47 l-10 13q78 59 154 59q117 0 192.5 -83t75.5 -200q0 -131 -86 -217t-219 -86q-182 0 -277 152q-80 127 -80 319z" />
<glyph unicode="7" d="M113 766l100 156h555q-303 -487 -444 -922h-134q174 391 484 829h-492l-41 -63h-28z" />
<glyph unicode="8" d="M94 213q0 168 219 213v-25q-115 -45 -114 -180q0 -229 225 -229q246 0 246 203q0 121 -142 184q-131 45 -262 92q-141 66 -141 197q0 121 98 198q90 70 217 70q104 0 199 -57q106 -68 106 -166q0 -158 -233 -197v21q133 37 133 186q0 88 -63 139q-59 45 -150 45 q-96 0 -156 -49q-66 -53 -65 -147q0 -113 143 -172q133 -47 269 -97q143 -72 143 -213q0 -135 -107 -202q-90 -57 -233 -58q-127 0 -221 58q-111 66 -111 186z" />
<glyph unicode="9" d="M98 629q0 131 88 217t220 86q182 0 276 -152q80 -126 80 -319q0 -199 -88 -334q-104 -160 -293 -160q-88 0 -160 45q-82 51 -82 133q0 80 74 80q23 0 37 -20.5t14 -42.5q0 -49 -59 -53q0 -57 65 -91q53 -29 115 -28q268 0 268 467q0 453 -241 452q-113 0 -168 -90 q-45 -74 -45 -192q0 -82 32 -158q41 -98 113 -98q90 0 209 78l14 -15q-137 -88 -217 -88q-113 0 -182.5 84t-69.5 199z" />
<glyph unicode=":" horiz-adv-x="247" d="M82 29q0 53 57 53q54 0 54 -53q0 -55 -56 -56q-55 0 -55 56zM82 305q0 53 57 53q54 0 54 -53q0 -55 -56 -55q-55 0 -55 55z" />
<glyph unicode=";" horiz-adv-x="251" d="M84 29q0 61 66 61q51 0 51 -61q0 -41 -28 -88t-64 -64l-11 6q41 45 43 76q-57 23 -57 70zM88 305q0 53 55 53q56 0 56 -53q0 -55 -58 -55q-53 0 -53 55z" />
<glyph unicode="&#x3c;" horiz-adv-x="866" d="M4 344v55l797 318v-60l-711 -284l711 -283v-61z" />
<glyph unicode="=" horiz-adv-x="821" d="M14 205v74h754v-74h-754zM14 500v73h754v-75z" />
<glyph unicode="&#x3e;" horiz-adv-x="866" d="M29 29v61l714 279l-714 288v62l794 -324v-51z" />
<glyph unicode="?" horiz-adv-x="806" d="M84 999q0 98 96 152q78 41 187 41q143 0 258 -80q129 -90 129 -227q0 -125 -101 -205q-90 -74 -223 -84v-381h-70v403q281 16 281 269q0 135 -77 208.5t-214 73.5q-72 0 -131 -28q-74 -35 -74 -101l17 2q20 0 36.5 -16t16.5 -37q0 -61 -72 -61q-59 0 -59 71zM338 25 q0 53 55 53q56 0 56 -53q0 -55 -56 -56q-55 0 -55 56z" />
<glyph unicode="@" horiz-adv-x="1155" d="M14 459q0 242 170 404.5t414 162.5q201 0 342 -108q154 -121 154 -314q0 -135 -68 -256q-80 -141 -207 -141q-111 0 -155 86q-86 -90 -183 -90q-76 0 -127 65q-49 59 -49 138q0 131 82 243q88 121 215 121q104 0 150 -106l22 88h74q-33 -100 -64 -203q-39 -129 -39 -203 q0 -78 72 -78q113 0 176 113q51 94 51 217q0 182 -135 287q-125 96 -311 96q-221 0 -368.5 -154.5t-147.5 -377.5q0 -219 140 -348.5t362 -129.5q199 0 415 135l23 -30q-199 -147 -453 -148q-242 0 -398.5 145.5t-156.5 385.5zM377 397q0 -55 31 -94q35 -45 88 -45 q96 0 163 129q56 109 56 215q0 47 -32 84t-79 37q-98 0 -168 -117q-59 -102 -59 -209z" />
<glyph unicode="A" horiz-adv-x="1310" d="M45 0v25q119 0 158 45q18 23 61 157l379 1207h16l533 -1409h96v-25h-315v25h110l-172 452h-534l-62 -176q-34 -106 -34 -176q0 -72 59 -90q29 -10 115 -10v-25h-410zM385 500l518 -2l-285 747z" />
<glyph unicode="B" horiz-adv-x="1163" d="M92 0v25h111v1386h-111v23q61 0 184 2t183 2q231 0 323 -27q186 -51 187 -223q0 -168 -152 -234q-106 -47 -313 -47q-39 0 -105.5 2t-93.5 2v-886l160 -2h9q227 0 362 102q153 116 153 343q0 331 -264 406v23q184 -55 268 -143q101 -105 101 -283q0 -135 -84 -256 q-96 -137 -238 -182q-98 -33 -301 -33h-379zM305 936h82q53 -2 82 -2q184 0 272 41q129 59 129 221q0 141 -129 190q-73 27 -224 27h-21l-191 -2v-475z" />
<glyph unicode="C" horiz-adv-x="1134" d="M197 1217q152 260 407 260q47 0 134 -25t130 -25q66 0 150 52v-303h-25q-31 125 -139.5 200.5t-241.5 75.5q-229 0 -340 -293q-79 -208 -79 -478v-7q0 -254 79 -438q106 -250 326 -250q201 0 322 157q112 142 112 347v4q0 68 -20 153h28q19 -68 19 -160q0 -217 -119 -366 q-131 -164 -342 -164q-260 0 -408 264q-118 215 -118 497q0 279 125 499z" />
<glyph unicode="D" horiz-adv-x="1251" d="M92 0v25h111v1386h-111v23q59 0 178 2t179 2q109 0 202 -6q262 -16 410 -244q129 -197 129 -473q0 -248 -107.5 -432.5t-255.5 -241.5q-106 -41 -352 -41h-383zM305 25h277q262 0 389 208q104 170 104 453q0 287 -96 471q-123 233 -379 252q-31 2 -123 2h-172v-1386z" />
<glyph unicode="E" horiz-adv-x="1009" d="M92 0v25h111v1386h-111v23h821v-267h-22q0 172 -105 219q-57 27 -237 27h-25l-219 -2v-653l227 -2h6q223 0 236 151h25v-350h-25q-8 125 -90 158q-43 18 -195 18h-184v-708h346q262 0 262 272h25v-297h-846z" />
<glyph unicode="F" horiz-adv-x="944" d="M92 0v25h111v1386h-111v23h821v-267h-22q0 172 -107 219q-57 27 -235 27h-25l-219 -2v-467q31 0 92.5 -3t94.5 -3q268 0 280 156h23v-351h-23q-8 125 -90 160q-45 19 -181 19h-14l-182 -2v-895h131v-25h-344z" />
<glyph unicode="G" horiz-adv-x="1206" d="M68 676q0 299 122 524q150 276 424 277q47 0 135.5 -21.5t133.5 -21.5q61 0 94 30h27v-264h-25q-106 248 -365 248q-236 0 -352 -291q-84 -211 -84 -491q0 -264 92 -451q119 -238 359 -238q152 0 209 115q41 82 41 248q0 195 -6.5 245t-38.5 58q-9 3 -56 3q-24 0 -57 -1 v27h399v-27h-45q-63 0 -75.5 -15.5t-12.5 -80.5q0 -35 2 -107v-108q0 -381 -371 -381q-276 0 -425 233q-125 197 -125 490z" />
<glyph unicode="H" horiz-adv-x="1148" d="M92 0v25h111v1386h-111v23h324v-23h-111v-520h559v520h-110v23h323v-23h-112v-1386h112v-25h-323v25h110v841h-559v-841h111v-25h-324z" />
<glyph unicode="I" horiz-adv-x="479" d="M92 0v25h111v1386h-111v23h324v-23h-111v-1386h111v-25h-324z" />
<glyph unicode="J" horiz-adv-x="995" d="M33 213q0 109 84 109q67 0 67 -72q0 -70 -73 -70q-23 0 -43 10q45 -210 343 -210h3q186 0 256 118q51 88 51 291v1022h-115v23h324v-23h-111v-987q0 -254 -76 -352q-90 -117 -344 -117q-141 0 -241 57q-125 70 -125 201z" />
<glyph unicode="K" horiz-adv-x="1210" d="M92 0v25h111v1386h-111v23h350v-23h-137v-860l465 557q135 162 135 240q0 63 -90 63h-14v23h362v-23q-90 0 -176 -86q-63 -80 -127 -158l-237 -284l426 -858h94v-25h-303v25h96l-379 782l-252 -303v-479h131v-25h-344z" />
<glyph unicode="L" horiz-adv-x="919" d="M92 0v25h111v1386h-111v23h324v-23h-111v-1386q31 0 95.5 -3.5t97.5 -3.5q340 0 340 244h24v-262h-770z" />
<glyph unicode="M" horiz-adv-x="1603" d="M27 0v25q141 0 180 65q18 29 45 193l164 1015l-43 113h-135v23h241l314 -914l268 914h268v-23h-170l266 -1386h146v-25h-383v25h133l-254 1325l-295 -1016l-336 917l-147 -946q-10 -66 -10 -117q0 -96 36.5 -129.5t130.5 -33.5v-25h-419z" />
<glyph unicode="N" horiz-adv-x="1267" d="M74 0v25q133 0 162 34q22 28 22 158v12v1047l-76 135h-108v23h198l703 -1239q0 119 3 355t3 353q0 256 -6 363.5t-66 134.5q-27 10 -157 10v23h475v-23h-68q-92 0 -123.5 -34t-31.5 -128v-1249h-29l-690 1229q0 -115 -2 -344.5t-2 -343.5q0 -289 4 -369q6 -106 43 -131 q27 -16 139 -16v-25h-393z" />
<glyph unicode="O" horiz-adv-x="1269" d="M84 715q0 283 145 506q166 254 435 254q274 0 419 -273q119 -219 119 -518q0 -283 -125 -485q-147 -242 -413 -242q-274 0 -439 252q-141 217 -141 506zM180 700q0 -258 109 -462q133 -252 368 -252q242 0 355 260q82 190 82 469q0 285 -76 469q-106 258 -350 258 q-242 0 -377 -262q-111 -213 -111 -480z" />
<glyph unicode="P" horiz-adv-x="1067" d="M92 0v25h111v1386h-111v23q61 0 184 2t183 2q260 0 370 -49q177 -77 177 -304q0 -201 -166 -276q-117 -53 -351 -53h-96q-61 2 -88 2v-733h111v-25h-324zM305 782l156 -2h15q187 0 284 47q139 68 139 246q0 201 -131 279q-100 59 -315 59h-148v-629z" />
<glyph unicode="Q" horiz-adv-x="1263" d="M86 698q0 295 129 514q154 262 430 263q281 0 430 -248q121 -207 121 -506q0 -283 -119 -496q-141 -260 -401 -270q156 -86 270 -86q102 0 180 51q104 70 111 72l18 -12q2 -63 -104 -134q-98 -63 -166 -63q-193 0 -358 176q-274 18 -418 250q-123 197 -123 489zM176 690 q0 -254 94 -438q113 -223 340 -266l-22 34l16 11l43 -47q246 18 357 264q83 182 83 463q0 291 -75 475q-106 264 -355 264q-250 0 -378 -270q-102 -211 -103 -490z" />
<glyph unicode="R" horiz-adv-x="1146" d="M92 0v25h111v1386h-111v23q59 0 176 2h174q254 0 371 -43q197 -74 197 -285q0 -152 -104.5 -247t-260.5 -95q4 -37 36 -60.5t71 -25.5l266 -655h84v-25h-326v25h131l-293 741h-309v-741h98v-25h-311zM305 788l141 -2h15q196 0 293 50q141 72 141 258q0 193 -139 264 q-100 53 -312 53h-139v-623z" />
<glyph unicode="S" horiz-adv-x="993" d="M72 -37v277h22v-23q0 -127 150 -186q111 -45 266 -45q324 0 324 309q0 211 -189 342q-174 96 -348 194q-188 123 -188 314q0 143 88 237.5t233 94.5q51 0 150.5 -29t148.5 -29q51 0 109 39v-319h-23v5q0 152 -113 234q-102 72 -264 72q-237 0 -237 -248q0 -192 188 -311 q172 -96 346 -195q189 -133 189 -358q0 -178 -118 -279.5t-300 -101.5q-76 0 -199 34t-135 34q-57 0 -100 -62z" />
<glyph unicode="T" horiz-adv-x="995" d="M68 1260v174h888v-174h-20q0 109 -47 137q-30 16 -131 16h-23l-164 -2v-1386h119v-25h-338v25h117v1386h-238q-84 0 -112.5 -32.5t-28.5 -118.5h-22z" />
<glyph unicode="U" horiz-adv-x="1140" d="M92 1411v23h324v-23h-111q0 -129 -3 -383t-3 -381q0 -242 6 -379q6 -152 67.5 -217t211.5 -65q184 0 254 102q57 84 57 281q0 98 3 295.5t3 296.5q0 201 -6 305q-4 84 -36 114.5t-114 30.5h-75v23h479v-23h-64q-94 0 -126.5 -34t-32.5 -128v-891q0 -197 -72 -292 q-82 -109 -272 -109q-362 0 -379 324q-9 169 -9 402q0 78 1 163l8 565h-111z" />
<glyph unicode="V" horiz-adv-x="1355" d="M43 1411v23h334v-23h-113l443 -1274l327 998q43 131 43 176q0 100 -192 100v23h444v-23q-135 -4 -174 -49q-23 -25 -72 -172l-397 -1204h-39l-489 1425h-115z" />
<glyph unicode="W" horiz-adv-x="1597" d="M47 1411v23h346v-23h-114l311 -1245l205 799l266 -815l250 940q35 131 35 184q0 84 -62 115q-43 22 -129 22h-8v23h430v-23q-111 0 -156 -72q-23 -35 -59 -172l-313 -1181h-43l-238 749l-195 -749h-43l-356 1425h-127z" />
<glyph unicode="X" horiz-adv-x="1073" d="M63 0v25q92 0 123 28q20 18 58 115l225 582l-244 661h-98v23h317v-23h-114l264 -715q229 573 229 647q0 51 -75 64q-25 4 -115 4v23h403v-23q-104 -2 -145 -47q-18 -23 -64 -141l-217 -566l236 -632h108v-25h-333v25h116l-252 684q-66 -160 -129 -322q-94 -242 -94 -303 q0 -45 66 -57q16 -2 98 -2v-25h-363z" />
<glyph unicode="Y" horiz-adv-x="1177" d="M49 1411v23h359v-23h-125l354 -620q92 145 184 288q139 227 140 281q0 52 -109 52q-14 0 -31 -1v23h334v-23q-111 -12 -182 -131l-328 -532v-723h111v-25h-322v25h111v723l-381 663h-115z" />
<glyph unicode="Z" horiz-adv-x="946" d="M84 1128v306h780l-649 -1409q35 0 103.5 -2.5t101.5 -2.5q340 0 407 97q27 37 27 143h25v-260h-783l656 1411h-375q-167 1 -219 -57q-49 -54 -49 -208v-18h-25z" />
<glyph unicode="[" horiz-adv-x="446" d="M92 -307v1741h301v-33h-221v-1680h221v-28h-301z" />
<glyph unicode="\" horiz-adv-x="913" d="M119 1581h108l660 -1966h-109z" />
<glyph unicode="]" horiz-adv-x="442" d="M92 -279h221v1680h-221v33h301v-1741h-301v28z" />
<glyph unicode="^" horiz-adv-x="573" d="M84 600l197 256h69l164 -246h-31l-178 162l-196 -172h-25z" />
<glyph unicode="_" horiz-adv-x="1351" d="M37 -186h1364v-105h-1364v105z" />
<glyph unicode="`" horiz-adv-x="450" d="M76 813q0 35 37 35q42 0 280 -238l-10 -12q-307 166 -307 215z" />
<glyph unicode="a" horiz-adv-x="808" d="M76 156q0 92 76 147q68 47 165 47q74 0 220 -53v35q0 194 -148 194h-2q-31 0 -129 -39v21q76 45 170 45q154 0 193 -109q16 -49 16 -241.5t51 -192.5q23 0 86 39l12 -16q-98 -61 -143 -62q-55 0 -92 88q-145 -88 -254 -88q-82 0 -151.5 52.5t-69.5 132.5zM182 154 q0 -63 43 -106.5t107 -43.5q82 0 209 80q-4 31 -4 188q-104 45 -183 45q-78 0 -125 -44t-47 -119z" />
<glyph unicode="b" d="M66 1411v23h213v-951q90 68 213 68q121 0 217 -80t96 -199q0 -131 -76 -215t-207 -84q-119 0 -243 82v-55h-187v25h84v1386h-110zM279 84q139 -80 219 -80q90 0 149 84q55 78 55 170q0 111 -65.5 184.5t-173.5 73.5q-106 0 -184 -65v-367z" />
<glyph unicode="c" horiz-adv-x="772" d="M57 260q0 141 107 219q96 72 244 72q98 0 192 -49q113 -60 113 -148q0 -82 -76 -82q-27 0 -48.5 18.5t-21.5 45.5t19.5 45t46.5 16v15q0 57 -78 90q-57 24 -122 24h-5q-119 0 -188.5 -68.5t-69.5 -187.5q0 -121 63 -194q68 -80 189 -80q147 0 264 172l23 -10 q-129 -186 -308 -187q-139 0 -235 74q-109 82 -109 215z" />
<glyph unicode="d" horiz-adv-x="851" d="M59 242q0 139 92.5 225t233.5 86q106 0 215 -76v934h-104v23h204v-1409h74v-25h-174v51q-102 -80 -225 -80q-117 0 -213 76q-102 82 -103 195zM164 248q0 -94 75.5 -171t170.5 -77q90 0 190 84v360q-119 80 -197 80q-104 0 -171.5 -85t-67.5 -191z" />
<glyph unicode="e" horiz-adv-x="790" d="M61 262q0 141 105 219q92 72 240 72q280 0 325 -242h-555q0 -137 55 -219q66 -96 197 -96q141 0 266 170l21 -12q-113 -184 -285 -185q-137 0 -246 76q-123 86 -123 217zM176 338h461q-4 86 -80 139q-70 47 -160 47q-92 0 -152.5 -49t-68.5 -137z" />
<glyph unicode="f" horiz-adv-x="425" d="M66 0v25h110v475h-110v24h110v533q0 168 37 254q53 131 197 131q72 0 125 -35q61 -41 61 -109q0 -65 -57 -65h-2q-57 0 -58 49q0 55 62 66q-16 71 -124 71h-3q-135 0 -135 -284v-611h127v-24h-127v-475h127v-25h-340z" />
<glyph unicode="g" horiz-adv-x="880" d="M139 -164l15 -8q-119 -102 -119 -236q0 -162 115 -249q104 -80 272 -80q162 0 258 67q108 75 108 227v3q0 168 -178 233q-166 31 -331 64q-178 37 -179 135q0 43 56 131l16 -10q-20 -41 -20 -78q0 -63 184 -96q266 -45 346 -80q184 -83 184 -267q0 -176 -141 -274 q-123 -84 -309 -84q-170 0 -310 82q-161 95 -161 252q0 164 194 268zM80 299q0 127 127 197q104 57 248 57q33 0 63 -4q127 147 279 147h3q95 0 95 -67q0 -57 -59 -58q-23 0 -40.5 16.5t-17.5 39.5q0 25 15 45q-2 0 -7 2h-8q-109 0 -233 -135q94 -18 160 -78q73 -67 73 -156 q0 -121 -125 -184q-98 -49 -231 -49q-115 0 -219 55q-123 68 -123 172zM176 311q0 -102 82 -161q72 -55 178 -56q102 0 172 51q78 58 78 158q0 166 -160 215q-37 -47 -63 -94l-21 12q25 47 58 88q-8 0 -27 2h-27q-113 0 -186 -49q-84 -57 -84 -166z" />
<glyph unicode="h" horiz-adv-x="798" d="M66 0v25h110v1386h-110v23h213v-963q125 82 221 82q139 0 145 -141v-387h103v-25h-193l2 274q0 12 2 47t2 54q0 143 -98 143q-66 0 -184 -78v-415h110v-25h-323z" />
<glyph unicode="i" horiz-adv-x="438" d="M66 0v25h110v475h-110v24h213v-499h110v-25h-323zM170 922q0 51 59 51q56 -1 56 -60q0 -51 -58 -51q-57 0 -57 60z" />
<glyph unicode="j" horiz-adv-x="428" d="M-154 -498q25 0 44.5 -16t19.5 -41q0 -57 -60 -57q-29 0 -51 26q0 -4 -2 -10v-8q0 -49 66 -80q53 -25 108 -25q125 0 170 107q27 68 27 215v887h-111v24h320v-24h-111v-817q0 -190 -47 -285q-68 -129 -239 -129q-78 0 -138 26q-73 35 -73 103q0 104 77 104zM217 973 q57 -1 57 -60q0 -51 -51 -51q-65 0 -65 58q0 53 59 53z" />
<glyph unicode="k" horiz-adv-x="899" d="M66 0v25h110v1386h-110v23h213v-1254q94 66 188 133q149 108 149 140q0 47 -147 47v24h379v-26h-5q-82 0 -173 -60l-156 -114l211 -299h115v-25h-289v25h70l-175 249l-167 -127v-122h98v-25h-311z" />
<glyph unicode="l" horiz-adv-x="430" d="M66 0v25h110v1386h-110v23h213v-1409h110v-25h-323z" />
<glyph unicode="m" horiz-adv-x="1110" d="M66 0v25h110v475h-110v24h213v-78q106 106 190 107q109 0 141 -109q104 109 195 109q127 0 135 -129q2 -35 2 -399h115v-25h-209l2 274q0 8 2 41t2 54q0 141 -68 141q-78 0 -176 -98v-387h80v-25h-168v262q0 131 -2 148q-12 98 -76 98q-86 0 -165 -96v-387h77v-25h-290z " />
<glyph unicode="n" horiz-adv-x="788" d="M66 0v25h110v475h-110v24h213v-88q94 117 194 117q127 0 133 -137q2 -48 2 -146t-2 -245h125v-25h-209v397q0 113 -73 113q-88 0 -170 -115v-370h110v-25h-323z" />
<glyph unicode="o" horiz-adv-x="821" d="M51 258q0 137 109 219q100 74 243 74q139 0 242 -80q113 -86 113 -221q0 -143 -113 -215q-96 -61 -250 -62q-139 0 -235 70q-109 80 -109 215zM160 281q0 -283 246 -283q119 0 180 68.5t61 187.5q0 125 -65.5 199.5t-188.5 74.5q-113 0 -173 -66.5t-60 -180.5z" />
<glyph unicode="p" horiz-adv-x="849" d="M66 496v24h213v-74q102 102 221 103q121 0 207 -78t86 -199q0 -133 -79 -218t-212 -85q-96 0 -223 86v-780h102v-25h-315v25h110v1221h-110zM279 94q113 -96 223 -96q88 0 139 88q45 74 45 168q0 98 -49 176q-55 90 -150 90q-102 0 -208 -106v-320z" />
<glyph unicode="q" horiz-adv-x="866" d="M53 260q0 129 84 211t215 82q119 0 240 -80v51h219v-26l-119 2v-1223h96v-25h-292v25h96v795q-98 -102 -219 -103q-125 0 -219 82q-100 86 -101 209zM160 248q0 -86 64.5 -168t148.5 -82h2q97 0 217 108v330q-119 84 -225 84q-98 0 -158 -92q-49 -78 -49 -180z" />
<glyph unicode="r" horiz-adv-x="638" d="M66 0v25h110v475h-110v24h213v-125q125 152 231 152q45 0 85 -26.5t40 -69.5q0 -82 -68 -82q-25 0 -42 19.5t-17 43.5q0 53 45 64q-19 28 -56 28h-3q-84 0 -215 -170v-333h110v-25h-323z" />
<glyph unicode="s" horiz-adv-x="708" d="M47 -25v160h16q123 -139 316 -139q63 0 110 22q61 29 62 84q0 70 -125 101q-117 25 -233 49q-125 41 -125 145q0 82 77 123q59 31 150 31q39 0 115.5 -9.5t115.5 -9.5q43 0 76 9v-129q-173 120 -301 120h-2q-55 0 -98 -24q-53 -29 -54 -80q0 -66 127 -96q117 -25 236 -51 q127 -44 127 -142q0 -88 -86 -131q-68 -35 -166 -35q-37 0 -109.5 15.5t-109.5 15.5q-55 0 -119 -29z" />
<glyph unicode="t" horiz-adv-x="466" d="M45 500v24h80q109 125 121 357h22v-357h125v-24h-125v-201q0 -141 4 -166q14 -119 76 -119q37 0 86 31l12 -18q-66 -55 -135 -56q-135 0 -141 170v359h-125z" />
<glyph unicode="u" horiz-adv-x="776" d="M66 500v24h213q0 -49 -2.5 -147t-2.5 -148q0 -123 2 -139q14 -92 80 -92q68 0 150 82v420h-78v24h287v-24h-111v-475h111v-25h-209v45q-63 -47 -68 -51q-39 -23 -82 -23q-190 0 -190 293q0 45 5 126t5 110h-110z" />
<glyph unicode="v" horiz-adv-x="792" d="M25 500v24h249v-24h-77l221 -391q168 305 168 348t-97 43v24h302v-26h-9q-95 0 -139 -41q-25 -23 -82 -131l-184 -353l-295 527h-57z" />
<glyph unicode="w" horiz-adv-x="968" d="M-2 500v24h264v-24h-102l170 -371l137 360l199 -368q31 76 61 151q39 102 39 150q0 74 -123 78v24h293v-26h-3q-94 0 -138 -119l-152 -406l-205 361l-137 -361l-244 527h-59z" />
<glyph unicode="x" horiz-adv-x="851" d="M51 500v24h279v-24h-68l184 -219q45 35 91 69q59 51 59 84q0 66 -115 66v24h314v-26l-43 2l-287 -242l201 -233h110v-25h-295v25h64l-195 223l-94 -94q-68 -74 -68 -103t78 -29q23 0 53 3v-25h-260v25h47l224 243l-201 232h-78z" />
<glyph unicode="y" horiz-adv-x="829" d="M-383 -690q0 69 62 69h2q23 0 40 -16t17 -37q0 -55 -39 -65q63 -23 123 -23q125 0 241 144q61 78 154 251l184 353l-292 514h-97v24h285v-24h-78l232 -416q45 80 92 160q57 106 57 164q0 92 -135 92v24h350v-26h-5q-77 0 -124 -56q-23 -25 -76 -125l-383 -720 q-94 -176 -157 -252q-115 -135 -250 -136q-203 0 -203 101z" />
<glyph unicode="z" horiz-adv-x="663" d="M59 354v170h529v-24l-389 -475h264q115 0 115 116h22v-141h-532v25l393 475h-203q-94 0 -131 -28t-47 -118h-21z" />
<glyph unicode="{" horiz-adv-x="940" d="M59 504v92q201 29 271 96q78 76 78 273v194q0 383 475 393v-59q-201 -27 -273 -125q-51 -74 -51 -240v-88q2 -61 2 -96q0 -211 -123 -295q-63 -43 -315 -108q215 -18 309 -88q86 -61 109 -195q12 -74 12 -319q0 -168 80 -246q74 -72 248 -92v-58q-455 20 -471 348 q-2 57 0 146q2 121 2 143q0 172 -97 242q-63 45 -256 82z" />
<glyph unicode="|" horiz-adv-x="186" d="M59 -532v2162h74v-2162h-74z" />
<glyph unicode="}" horiz-adv-x="937" d="M59 -395q170 16 246 102q61 70 74 209q2 27 2 268q0 188 127 275q86 59 303 94q-223 41 -309 100.5t-107 180.5q-10 66 -10 325q0 164 -82 244q-76 72 -244 96v55q453 -20 467 -344q2 -51 0 -131q-2 -111 -2 -133q0 -186 90 -260q70 -59 267 -88v-92 q-199 -49 -268.5 -102.5t-82.5 -161.5q-2 -20 -2 -293q0 -215 -131 -311q-109 -80 -338 -95v62z" />
<glyph unicode="~" horiz-adv-x="589" d="M80 702q51 117 121 117q39 0 115.5 -22.5t115.5 -22.5q29 0 86 74l17 -8q-63 -117 -150 -117q-37 0 -103.5 21.5t-101.5 21.5q-45 0 -88 -74z" />
<glyph unicode="&#xa1;" horiz-adv-x="370" d="M72 -633h80v940h69v-940h74v-24h-223v24zM129 500q0 53 55 53q54 0 54 -53t-54 -54q-20 0 -37.5 16.5t-17.5 37.5z" />
<glyph unicode="&#xa2;" horiz-adv-x="798" d="M86 498q0 135 107 219q98 76 235 76q41 0 82 -9l74 195h32l-75 -199q72 -16 131 -67q65 -57 65 -125q0 -80 -73 -80q-70 0 -70 65q0 63 65 60q2 45 -36.5 80t-87.5 45l-191 -508q14 0 46 -7t50 -7q154 0 273 167l22 -8q-127 -188 -317 -188q-31 0 -88 8l-82 -217h-31 l80 227q-90 27 -150.5 102.5t-60.5 170.5zM197 504q0 -172 120 -242l185 502q-305 0 -305 -260z" />
<glyph unicode="&#xa3;" horiz-adv-x="849" d="M82 57q0 111 135 111q53 0 119 -21q0 78 -29 152q-14 33 -71 137h-113v27h94q-51 131 -51 186q0 127 93 209t220 82q102 0 183 -51q90 -61 90 -158q0 -121 -95 -121q-25 0 -44 19.5t-19 42.5q0 68 74 67q31 0 53 -30q-14 207 -234 206q-100 0 -157.5 -62t-57.5 -165 q0 -92 54 -225h153v-27h-143q49 -131 49 -200q0 -35 -16 -101q160 -68 245 -67q68 0 105 49q23 29 49 110l23 -10q-76 -250 -213 -250q-82 0 -242 105q-82 -100 -154 -101q-100 0 -100 86zM106 59q0 -63 80 -63q39 0 70 33q10 10 49 63q-88 47 -108 47q-90 0 -91 -80z" />
<glyph unicode="&#xa5;" horiz-adv-x="1177" d="M51 1411v23h363v-23h-129l354 -620q84 131 170 262q152 248 152 311q0 47 -138 47v23h334v-23q-102 0 -182 -131l-328 -532v-287h277v-35h-277v-145h277v-33h-277v-223h111v-25h-322v25h111v223h-281v33h281v145h-281v35h281v287l-379 663h-117z" />
<glyph unicode="&#xa7;" horiz-adv-x="1009" d="M66 618q0 156 143 326q-78 106 -78 197q0 127 100 211q94 82 226 82q55 0 161.5 -32t159.5 -32q51 0 58 64h20v-347h-22q-2 150 -115 238q-104 82 -258 82q-106 0 -176 -61.5t-70 -165.5q0 -137 186 -256q174 -100 349 -199q186 -131 186 -299q0 -86 -35 -158 q-25 -49 -92 -135q84 -113 84 -201q0 -152 -118 -248t-271 -96q-53 0 -150.5 35t-146.5 35q-51 0 -74 -61h-22v340h24q8 -160 104.5 -241t258.5 -81q133 0 220 82t87 213q0 137 -193 246q-176 90 -354 180q-193 119 -192 282zM164 662q0 -115 121 -213q76 -61 255 -151.5 t230 -131.5q74 115 74 240q0 139 -240 292q-180 106 -358 213q-82 -121 -82 -249z" />
<glyph unicode="&#xa8;" horiz-adv-x="497" d="M74 649q0 45 51 45q47 0 47 -47t-53 -47q-45 0 -45 49zM338 649q0 45 51 45q47 0 47 -47t-53 -47q-45 0 -45 49z" />
<glyph unicode="&#xa9;" horiz-adv-x="1961" d="M82 874q0 365 267 624t634 259q377 0 648.5 -263t271.5 -636q0 -377 -262.5 -632t-643.5 -255q-383 0 -649 261.5t-266 641.5zM180 858q0 -334 242 -563q236 -225 573 -225q338 0 571.5 225t233.5 559q0 336 -238.5 570.5t-576.5 234.5q-330 0 -567.5 -236.5 t-237.5 -564.5zM451 887q0 219 141 387q150 176 364 176q88 0 211 -51t129 -51q35 0 54 92h51v-439h-47q-29 162 -115 265q-98 123 -250 123q-170 0 -256 -166q-68 -131 -67 -316q0 -201 75 -336q92 -166 279 -165q215 0 356 237l58 -27q-152 -295 -453 -294 q-233 0 -385 167q-145 162 -145 398z" />
<glyph unicode="&#xaa;" horiz-adv-x="491" d="M63 1341q0 45 43 72q35 23 84 23q31 0 103 -23q0 53 -10 76q-16 33 -64 33q-29 0 -65 -15v13q37 18 79 18q82 0 103 -57q8 -25 8 -125q0 -90 25 -90q8 0 45 24l4 -10q-47 -35 -74 -35q-6 0 -13 5t-34 40q-70 -43 -125 -43q-41 0 -75 26.5t-34 67.5zM117 1343 q0 -80 78 -79q26 0 100 39q-2 10 -2 96q-63 23 -90 22q-35 0 -60.5 -21.5t-25.5 -56.5z" />
<glyph unicode="&#xab;" horiz-adv-x="643" d="M84 217v78l225 197l17 -15l-172 -219l170 -215l-15 -23zM346 217v78l225 197l17 -15l-172 -219l168 -215l-13 -23z" />
<glyph unicode="&#xac;" horiz-adv-x="468" d="M88 1833q0 76 78 76q49 0 72 -39q12 -20 26 -82l152 -631h-45l-191 434q-29 59 -57 119q-35 78 -35 123z" />
<glyph unicode="&#xad;" horiz-adv-x="432" d="M90 260v92h293v-92h-293z" />
<glyph unicode="&#xae;" horiz-adv-x="1951" d="M84 877q0 360 260 621t623 261q383 0 654 -261t271 -640t-263 -635t-646 -256q-377 0 -638 266.5t-261 643.5zM182 860q0 -334 233.5 -564t571.5 -230q334 0 570.5 229t236.5 561q0 338 -237.5 570.5t-579.5 232.5q-332 0 -563.5 -233.5t-231.5 -565.5zM473 348v55 q106 0 139 19q45 25 45 119v495q0 33 2.5 85.5t2.5 70.5q0 86 -33 117q-39 35 -156 34v58q57 0 171 2t171 2q256 0 377 -29q242 -57 242 -231q0 -215 -357 -273q150 -70 215 -192q27 -51 56 -188q18 -84 65 -84q55 0 78 71q10 31 18 119h62q-18 -266 -221 -266 q-150 0 -185 127q-16 121 -32 241q-31 135 -162 146q-25 2 -78 2h-62l-2 -217q-2 -156 17 -185q27 -43 166 -43v-55h-539zM831 913h93q297 0 297 213q0 217 -258 217q-78 0 -105 -32.5t-27 -114.5v-283z" />
<glyph unicode="&#xb1;" horiz-adv-x="1703" d="M84 154v110h1554v-110h-1554zM84 1001v121h721v437h121v-437h712v-121h-712v-438h-121v438h-721z" />
<glyph unicode="&#xb4;" horiz-adv-x="444" d="M72 610q70 70 137 138q106 100 147 100q33 0 33 -33q0 -39 -133 -121q-2 -2 -174 -96z" />
<glyph unicode="&#xb5;" horiz-adv-x="1636" />
<glyph unicode="&#xb6;" horiz-adv-x="1271" d="M82 1372q0 289 182 410q147 98 451 98h497v-63h-182v-2044h-82v2044h-262v-2044h-80v1071q-262 20 -389 141q-135 127 -135 387z" />
<glyph unicode="&#xb8;" horiz-adv-x="501" d="M84 -338l8 21q76 -14 129 -15q154 0 154 109q0 76 -117 84l27 112h24l-20 -86q155 0 155 -92q0 -78 -71 -119q-59 -35 -144 -34q-55 0 -145 20z" />
<glyph unicode="&#xba;" horiz-adv-x="2048" />
<glyph unicode="&#xbb;" horiz-adv-x="643" d="M82 477l14 15l228 -197v-78l-228 -197l-12 23l168 215zM344 477l14 15l226 -197v-78l-226 -197l-12 23l168 215z" />
<glyph unicode="&#xbf;" horiz-adv-x="806" d="M78 -365q0 125 100 207q90 72 221 84v379h68v-401q-279 -18 -279 -271q0 -133 75 -206.5t208 -73.5q78 0 135 26q76 35 78 103l-16 -2q-20 0 -36 16.5t-16 36.5q0 61 72 61q57 1 57 -73q0 -98 -94 -150q-76 -41 -184 -41q-145 0 -260 78q-129 90 -129 227zM381 496 q0 57 55 57q56 0 56 -57q0 -53 -58 -54q-53 0 -53 54z" />
<glyph unicode="&#xc0;" horiz-adv-x="1310" d="M35 0v25q119 0 158 45q16 20 59 157l381 1207h14l533 -1409h100v-25h-319v25h110l-170 452h-532q-31 -88 -64 -176q-37 -109 -37 -178q0 -68 60 -88q31 -10 116 -10v-25h-409zM362 1692q0 35 35 34q45 1 283 -237l-12 -12q-305 164 -306 215zM375 500l518 -2l-287 747z " />
<glyph unicode="&#xc1;" horiz-adv-x="1310" d="M41 0v25q121 0 158 45q18 23 61 157l377 1207h14l537 -1409h96v-25h-315v25h110l-172 452h-534l-62 -176q-35 -109 -35 -180q0 -68 60 -86q29 -10 113 -10v-25h-408zM381 500l518 -2l-285 747zM588 1489q227 238 284 237q31 1 31 -32q0 -53 -305 -217z" />
<glyph unicode="&#xc2;" horiz-adv-x="1310" d="M47 0v25q121 0 158 45q18 23 61 157l379 1207h17l532 -1409h98v-25h-317v25h110l-172 452h-532l-62 -176q-37 -106 -36 -178q0 -68 59 -88q31 -10 117 -10v-25h-412zM389 500l518 -2l-286 747zM436 1460l197 254h67l166 -244h-30l-181 162l-194 -172h-25z" />
<glyph unicode="&#xc3;" horiz-adv-x="1310" d="M45 0v25q119 0 158 45q18 23 61 157l379 1207h16l533 -1409h96v-25h-315v25h110l-172 452h-534l-62 -176q-35 -109 -34 -180q0 -68 59 -86q29 -10 115 -10v-25h-410zM385 500l518 -2l-285 747zM438 1487q59 117 121 117q41 0 119 -22.5t117 -22.5q25 0 84 71l14 -8 q-61 -115 -139 -115q-39 0 -110 21.5t-105 21.5q-41 0 -88 -73z" />
<glyph unicode="&#xc4;" horiz-adv-x="1310" d="M41 0v25q121 0 158 45q18 23 61 157l377 1207h14l537 -1409h96v-25h-315v25h110l-172 452h-534l-62 -176q-35 -109 -35 -180q0 -68 60 -86q29 -10 113 -10v-25h-408zM381 500l518 -2l-285 747zM467 1518q0 45 51 45q49 -1 49 -50q0 -47 -55 -47q-45 0 -45 52zM731 1518 q0 45 51 45q49 -1 49 -50q0 -47 -55 -47q-45 0 -45 52z" />
<glyph unicode="&#xc5;" horiz-adv-x="1310" d="M35 0v25q119 0 158 45q16 20 59 157l381 1207h14l533 -1409h100v-25h-319v25h110l-170 452h-532q-31 -88 -64 -176q-37 -109 -37 -178q0 -68 60 -88q31 -10 116 -10v-25h-409zM375 500l518 -2l-287 747zM479 1616q0 57 45 93t105 36q66 0 116 -37t50 -100 q0 -59 -53.5 -95t-114.5 -36q-59 0 -103.5 39.5t-44.5 99.5zM526 1614q0 -53 30 -89t83 -36q106 0 106 123q0 53 -34.5 87t-87.5 34q-96 0 -97 -119z" />
<glyph unicode="&#xc6;" horiz-adv-x="1951" d="M66 0v25q106 0 159 49q23 20 99 139l579 907q102 160 103 219q0 55 -72 70q-16 2 -117 2v23h1012l6 -267h-25q-2 174 -108 222q-61 27 -262 24l-217 -2v-653l229 -2q231 -2 244 151h22v-350h-22q-8 125 -90 158q-45 18 -197 18h-186v-708h350q262 0 262 272h23v-297h-846 v25h112v510h-563q-72 -113 -143 -226q-102 -170 -103 -221q0 -47 72 -59q23 -4 107 -4v-25h-428zM578 557h546v854z" />
<glyph unicode="&#xc7;" horiz-adv-x="1134" d="M84 723q0 274 127 494q150 260 405 260q47 0 134.5 -25t130.5 -25q63 0 151 52v-303h-26q-29 125 -137.5 200.5t-241.5 75.5q-229 0 -340 -293q-80 -209 -80 -485q0 -256 78 -438q106 -250 325 -250q197 0 320 151q115 141 114 342q0 76 -20 168h31q18 -80 18 -160 q0 -215 -119 -366q-129 -164 -338 -164l-18 -78q156 0 156 -94q0 -78 -78 -119q-61 -33 -150 -33q-39 0 -133 23l8 20q59 -14 131 -14q150 0 150 111q0 80 -115 80l25 104q-248 0 -391 270q-117 221 -117 496z" />
<glyph unicode="&#xc8;" horiz-adv-x="1009" d="M92 0v25h111v1386h-111v23h821v-267h-22q0 172 -105 219q-61 29 -262 27l-219 -2v-653l227 -2q229 -2 242 151h25v-350h-25q-8 125 -90 158q-43 18 -195 18h-184v-708h346q262 0 262 272h25v-297h-846zM385 1692q0 35 37 34q42 1 280 -237l-10 -12q-307 166 -307 215z " />
<glyph unicode="&#xc9;" horiz-adv-x="1009" d="M92 0v25h111v1386h-111v23h821v-267h-22q0 172 -105 219q-61 29 -262 27l-219 -2v-653l227 -2q229 -2 242 151h25v-350h-25q-8 125 -90 158q-43 18 -195 18h-184v-708h346q262 0 262 272h25v-297h-846zM393 1489q225 236 285 235q31 1 31 -32q0 -51 -306 -215z" />
<glyph unicode="&#xca;" horiz-adv-x="1009" d="M92 0v25h111v1386h-111v23h821v-267h-22q0 172 -105 219q-61 29 -262 27l-219 -2v-653l227 -2q229 -2 242 151h25v-350h-25q-8 125 -90 158q-43 18 -195 18h-184v-708h346q262 0 262 272h25v-297h-846zM330 1483l196 256h68l166 -246h-31l-178 166l-197 -176h-24z" />
<glyph unicode="&#xcb;" horiz-adv-x="1165" d="M92 0v25h111v1386h-111v23h821v-267h-22q0 172 -105 219q-61 29 -262 27l-219 -2v-653l227 -2q229 -2 242 151h25v-350h-25q-8 125 -90 158q-43 18 -195 18h-184v-708h346q262 0 262 272h25v-297h-846zM354 1538q0 45 52 45q45 0 45 -47t-52 -47q-45 0 -45 49zM618 1538 q0 45 50 45q47 0 47 -47t-51 -47q-45 0 -46 49z" />
<glyph unicode="&#xcc;" horiz-adv-x="479" d="M70 1692q0 35 34 34q54 1 281 -237l-10 -12q-305 158 -305 215zM92 0v25h111v1386h-111v23h324v-23h-111v-1386h111v-25h-324z" />
<glyph unicode="&#xcd;" horiz-adv-x="479" d="M92 0v25h111v1386h-111v23h324v-23h-111v-1386h111v-25h-324zM156 1489q227 238 284 237q31 1 31 -32q0 -49 -303 -217z" />
<glyph unicode="&#xce;" horiz-adv-x="479" d="M47 1479l197 256h67l168 -246h-33l-180 162l-194 -172h-25zM92 0v25h111v1386h-111v23h324v-23h-111v-1386h111v-25h-324z" />
<glyph unicode="&#xcf;" horiz-adv-x="479" d="M74 1538q0 45 51 45q47 0 47 -47t-53 -47q-45 0 -45 49zM92 0v25h111v1386h-111v23h324v-23h-111v-1386h111v-25h-324zM338 1538q0 45 51 45q47 0 47 -47t-53 -47q-45 0 -45 49z" />
<glyph unicode="&#xd1;" horiz-adv-x="1286" d="M92 0v25q133 0 162 34q20 29 20 170v1047l-73 135h-109v23h199l702 -1239q0 119 2 355t2 353q0 291 -4 363q-6 109 -65 135q-27 10 -158 10v23h477v-23h-69q-92 0 -124 -34t-32 -128v-1249h-29l-688 1229q0 -115 -2 -344.5t-2 -343.5q0 -291 4 -371q6 -106 43 -131 q23 -14 137 -14v-25h-393zM451 1487q55 117 122 117q39 0 116 -22.5t116 -22.5q31 0 86 71l16 -8q-66 -115 -141 -115q-37 0 -107.5 21.5t-107.5 21.5q-45 0 -86 -73z" />
<glyph unicode="&#xd2;" horiz-adv-x="1269" d="M84 715q0 283 145 506q166 254 435 254q274 0 419 -273q119 -219 119 -518q0 -283 -125 -485q-147 -242 -413 -242q-274 0 -439 252q-141 217 -141 506zM180 700q0 -258 109 -462q133 -252 368 -252q242 0 355 260q82 190 82 469q0 285 -76 469q-106 258 -350 258 q-242 0 -377 -262q-111 -213 -111 -480zM571 1712q0 37 35 37q52 0 281 -240l-8 -12q-307 160 -308 215z" />
<glyph unicode="&#xd3;" horiz-adv-x="1269" d="M84 715q0 283 145 506q166 254 435 254q274 0 419 -273q119 -219 119 -518q0 -283 -125 -485q-147 -242 -413 -242q-274 0 -439 252q-141 217 -141 506zM180 700q0 -258 109 -462q133 -252 368 -252q242 0 355 260q82 190 82 469q0 285 -76 469q-106 258 -350 258 q-242 0 -377 -262q-111 -213 -111 -480zM473 1513q70 70 137 140q109 100 150 100q31 0 31 -33q0 -39 -134 -121q-2 -2 -174 -96z" />
<glyph unicode="&#xd4;" horiz-adv-x="1269" d="M84 715q0 283 145 506q166 254 435 254q274 0 419 -273q119 -219 119 -518q0 -283 -125 -485q-147 -242 -413 -242q-274 0 -439 252q-141 217 -141 506zM180 700q0 -258 109 -462q133 -252 368 -252q242 0 355 260q82 190 82 469q0 285 -76 469q-106 258 -350 258 q-242 0 -377 -262q-111 -213 -111 -480zM426 1483l195 256h69l166 -246h-33l-178 166l-196 -176h-23z" />
<glyph unicode="&#xd5;" horiz-adv-x="1269" d="M84 715q0 283 145 506q166 254 435 254q274 0 419 -273q119 -219 119 -518q0 -283 -125 -485q-147 -242 -413 -242q-274 0 -439 252q-141 217 -141 506zM180 700q0 -258 109 -462q133 -252 368 -252q242 0 355 260q82 190 82 469q0 285 -76 469q-106 258 -350 258 q-242 0 -377 -262q-111 -213 -111 -480zM451 1526q53 119 122 119q39 0 116 -23t116 -23q35 0 86 72l16 -8q-68 -117 -141 -117q-37 0 -107.5 21.5t-105.5 21.5q-43 0 -88 -76z" />
<glyph unicode="&#xd6;" horiz-adv-x="1269" d="M84 715q0 283 145 506q166 254 435 254q274 0 419 -273q119 -219 119 -518q0 -283 -125 -485q-147 -242 -413 -242q-274 0 -439 252q-141 217 -141 506zM180 700q0 -258 109 -462q133 -252 368 -252q242 0 355 260q82 190 82 469q0 285 -76 469q-106 258 -350 258 q-242 0 -377 -262q-111 -213 -111 -480zM485 1575q0 45 54 45q45 0 45 -47t-54 -47q-45 0 -45 49zM752 1575q0 45 49 45q47 0 47 -47t-53 -47q-43 0 -43 49z" />
<glyph unicode="&#xd8;" horiz-adv-x="1269" d="M84 731q0 274 147 494q166 248 428 248q106 0 191 -41l80 229h49l-86 -250q309 -215 309 -727q0 -281 -125 -485q-150 -242 -413 -242q-129 0 -234 53l-90 -270h-49l98 291l-8 10q-297 258 -297 690zM180 696q0 -377 223 -616l441 1321q-76 41 -176 41q-242 0 -379 -264 q-109 -215 -109 -482zM444 47q96 -61 213 -61q238 0 351 254q84 188 84 460q0 199 -39 363q-55 221 -170 311z" />
<glyph unicode="&#xd9;" horiz-adv-x="1165" d="M92 1411v23h324v-23h-111q0 -129 -3 -383t-3 -381q0 -242 6 -379q6 -152 67.5 -217t211.5 -65q184 0 254 102q57 84 57 281q0 98 3 295.5t3 296.5q0 201 -6 305q-4 84 -36 114.5t-114 30.5h-75v23h479v-23h-64q-94 0 -126.5 -34t-32.5 -128v-891q0 -197 -72 -292 q-82 -109 -272 -109q-362 0 -379 324q-12 225 -8 565l8 565h-111zM467 1702q0 35 35 35q42 0 280 -238l-10 -12q-305 170 -305 215z" />
<glyph unicode="&#xda;" horiz-adv-x="1165" d="M92 1411v23h324v-23h-111q0 -129 -3 -383t-3 -381q0 -242 6 -379q6 -152 67.5 -217t211.5 -65q184 0 254 102q57 84 57 281q0 98 3 295.5t3 296.5q0 201 -6 305q-4 84 -36 114.5t-114 30.5h-75v23h479v-23h-64q-94 0 -126.5 -34t-32.5 -128v-891q0 -197 -72 -292 q-82 -109 -272 -109q-362 0 -379 324q-12 225 -8 565l8 565h-111zM446 1489q238 238 287 237q31 1 31 -32q0 -39 -131 -121q-12 -6 -174 -96z" />
<glyph unicode="&#xdb;" horiz-adv-x="1165" d="M92 1411v23h324v-23h-111q0 -129 -3 -383t-3 -381q0 -242 6 -379q6 -152 67.5 -217t211.5 -65q184 0 254 102q57 84 57 281q0 98 3 295.5t3 296.5q0 201 -6 305q-4 84 -36 114.5t-114 30.5h-75v23h479v-23h-64q-94 0 -126.5 -34t-32.5 -128v-891q0 -197 -72 -292 q-82 -109 -272 -109q-362 0 -379 324q-12 225 -8 565l8 565h-111zM389 1483l195 256h67l168 -246h-31l-182 166l-192 -176h-25z" />
<glyph unicode="&#xdc;" horiz-adv-x="1196" d="M92 1411v23h324v-23h-111q0 -129 -3 -383t-3 -381q0 -242 6 -379q6 -152 67.5 -217t211.5 -65q184 0 254 102q57 84 57 281q0 98 3 295.5t3 296.5q0 201 -6 305q-4 84 -36 114.5t-114 30.5h-75v23h479v-23h-64q-94 0 -126.5 -34t-32.5 -128v-891q0 -197 -72 -292 q-82 -109 -272 -109q-362 0 -379 324q-12 225 -8 565l8 565h-111zM420 1538q0 45 51 45q47 0 47 -47t-53 -47q-45 0 -45 49zM684 1538q0 45 51 45q47 0 47 -47t-53 -47q-45 0 -45 49z" />
<glyph unicode="&#xdf;" horiz-adv-x="872" d="M80 0v25h110v895q0 231 35 335q59 184 242 185q164 0 244 -150q63 -119 63 -297q0 -145 -67 -260q-74 -127 -205 -164q301 -49 301 -299q0 -133 -76 -217t-209 -84q-180 0 -180 152q0 84 80 84q61 0 61 -55q0 -63 -59 -64q-33 0 -51 31q8 -123 151 -123q94 0 144 102 q39 80 38 185q0 272 -301 272v20q162 27 224 123q49 80 49 252q0 209 -23 295q-45 172 -194 172q-115 0 -150 -145q-14 -66 -14 -236v-1034h-213z" />
<glyph unicode="&#xe0;" horiz-adv-x="808" d="M59 156q0 90 74 145q68 49 162 49q72 0 223 -53l2 35q12 195 -153 194q-31 0 -129 -39v21q80 45 172 45q154 0 192 -109q16 -49 16 -240.5t50 -191.5q25 0 88 37l12 -16q-98 -61 -145 -62q-55 0 -93 88q-141 -88 -251 -88q-80 0 -150 53.5t-70 131.5zM164 154 q0 -63 43 -106.5t106 -43.5q80 0 211 80q-6 37 -6 188q-104 45 -182 45q-76 0 -124 -44t-48 -119zM242 815q0 35 34 35q54 0 281 -238l-10 -12l-172 98q-133 82 -133 117z" />
<glyph unicode="&#xe1;" horiz-adv-x="808" d="M59 156q0 90 74 145q68 49 162 49q72 0 223 -53l2 35q12 195 -153 194q-31 0 -129 -39v21q80 45 172 45q154 0 192 -109q16 -49 16 -240.5t50 -191.5q25 0 88 37l12 -16q-98 -61 -145 -62q-55 0 -93 88q-141 -88 -251 -88q-80 0 -150 53.5t-70 131.5zM164 154 q0 -63 43 -106.5t106 -43.5q80 0 211 80q-6 37 -6 188q-104 45 -182 45q-76 0 -124 -44t-48 -119zM274 616q70 70 140 138q109 100 147 100q31 0 31 -33q0 -55 -307 -219z" />
<glyph unicode="&#xe2;" horiz-adv-x="808" d="M59 156q0 90 74 145q68 49 162 49q72 0 223 -53l2 35q12 195 -153 194q-31 0 -129 -39v21q80 45 172 45q154 0 192 -109q16 -49 16 -240.5t50 -191.5q25 0 88 37l12 -16q-98 -61 -145 -62q-55 0 -93 88q-141 -88 -251 -88q-80 0 -150 53.5t-70 131.5zM164 154 q0 -63 43 -106.5t106 -43.5q80 0 211 80q-6 37 -6 188q-104 45 -182 45q-76 0 -124 -44t-48 -119zM201 600l196 256h68l168 -246h-33l-180 162l-195 -172h-24z" />
<glyph unicode="&#xe3;" horiz-adv-x="808" d="M59 156q0 90 74 145q68 49 162 49q72 0 223 -53l2 35q12 195 -153 194q-31 0 -129 -39v21q80 45 172 45q154 0 192 -109q16 -49 16 -240.5t50 -191.5q25 0 88 37l12 -16q-98 -61 -145 -62q-55 0 -93 88q-141 -88 -251 -88q-80 0 -150 53.5t-70 131.5zM164 154 q0 -63 43 -106.5t106 -43.5q80 0 211 80q-6 37 -6 188q-104 45 -182 45q-76 0 -124 -44t-48 -119zM197 606q53 119 120 119q41 0 118 -22.5t116 -22.5q25 0 84 72l14 -9q-57 -115 -139 -114q-37 0 -107.5 21.5t-105.5 21.5q-45 0 -88 -74z" />
<glyph unicode="&#xe4;" horiz-adv-x="808" d="M59 156q0 90 74 145q68 49 162 49q72 0 223 -53l2 35q12 195 -153 194q-31 0 -129 -39v21q80 45 172 45q154 0 192 -109q16 -49 16 -240.5t50 -191.5q25 0 88 37l12 -16q-98 -61 -145 -62q-55 0 -93 88q-141 -88 -251 -88q-80 0 -150 53.5t-70 131.5zM164 154 q0 -63 43 -106.5t106 -43.5q80 0 211 80q-6 37 -6 188q-104 45 -182 45q-76 0 -124 -44t-48 -119zM233 655q0 43 50 43q47 0 47 -47t-51 -47q-45 0 -46 51zM496 655q0 43 51 43q47 0 47 -47t-53 -47q-45 0 -45 51z" />
<glyph unicode="&#xe5;" horiz-adv-x="817" d="M59 156q0 90 74 145q68 49 162 49q72 0 223 -53l2 35q12 195 -153 194q-31 0 -129 -39v21q80 45 172 45q154 0 192 -109q16 -49 16 -240.5t50 -191.5q25 0 88 37l12 -16q-98 -61 -145 -62q-55 0 -93 88q-141 -88 -251 -88q-80 0 -150 53.5t-70 131.5zM164 154 q0 -63 43 -106.5t106 -43.5q80 0 211 80q-6 37 -6 188q-104 45 -182 45q-76 0 -124 -44t-48 -119zM272 741q0 61 50 97q43 33 106 32q68 0 115 -37t47 -100q0 -59 -53.5 -94t-114.5 -35t-105.5 39t-44.5 98zM322 737q0 -51 30.5 -86t79.5 -35q109 0 109 121q0 53 -34 88 t-89 35q-96 0 -96 -123z" />
<glyph unicode="&#xe6;" horiz-adv-x="1273" d="M76 168q0 86 78 139q70 49 159 49q78 0 222 -53q0 106 -23 154q-33 68 -129 67q-68 0 -131 -28v20q94 35 172 35q125 0 194 -90q133 90 281 90q117 0 198.5 -60.5t106.5 -171.5h-555q8 -324 248 -323q150 0 272 162l19 -11q-129 -180 -297 -180q-137 0 -291 123 q-117 -66 -149 -80q-92 -41 -162 -41q-84 0 -148.5 58.5t-64.5 140.5zM180 147q0 -59 46 -102t108 -43q58 0 201 82v190q-125 53 -189 54q-74 0 -120 -53.5t-46 -127.5zM655 342h449q-2 84 -69.5 135t-155.5 51q-78 0 -137.5 -54t-86.5 -132z" />
<glyph unicode="&#xe7;" horiz-adv-x="772" d="M57 260q0 141 111 221q98 72 248 72q96 0 188 -51q107 -60 107 -150q0 -80 -74 -80q-27 0 -48.5 18.5t-21.5 45.5q0 61 66 61v9q0 57 -70 92q-57 29 -123 28q-270 0 -270 -264q0 -115 68.5 -191.5t183.5 -76.5q147 0 264 174l23 -10q-68 -96 -131 -138q-74 -49 -181 -49 l-16 -80q156 0 156 -92q0 -80 -78 -121q-61 -31 -152 -30q-59 0 -131 20l8 23q70 -16 129 -17q154 0 154 107q0 84 -117 84l23 106q-129 2 -219 80q-96 82 -97 209z" />
<glyph unicode="&#xe8;" horiz-adv-x="790" d="M61 262q0 141 105 219q92 72 240 72q280 0 325 -242h-555q0 -137 55 -219q66 -96 197 -96q141 0 266 170l21 -12q-113 -184 -285 -185q-137 0 -246 76q-123 86 -123 217zM176 338h461q-4 86 -80 139q-70 47 -160 47q-92 0 -152.5 -49t-68.5 -137zM268 815q0 35 35 35 q54 0 281 -238l-11 -12l-172 98q-133 80 -133 117z" />
<glyph unicode="&#xe9;" horiz-adv-x="790" d="M61 262q0 141 105 219q92 72 240 72q280 0 325 -242h-555q0 -137 55 -219q66 -96 197 -96q141 0 266 170l21 -12q-113 -184 -285 -185q-137 0 -246 76q-123 86 -123 217zM176 338h461q-4 86 -80 139q-70 47 -160 47q-92 0 -152.5 -49t-68.5 -137zM274 616q70 70 140 138 q109 100 147 100q31 0 31 -33q0 -55 -307 -219z" />
<glyph unicode="&#xea;" horiz-adv-x="790" d="M61 262q0 141 105 219q92 72 240 72q280 0 325 -242h-555q0 -137 55 -219q66 -96 197 -96q141 0 266 170l21 -12q-113 -184 -285 -185q-137 0 -246 76q-123 86 -123 217zM176 338h461q-4 86 -80 139q-70 47 -160 47q-92 0 -152.5 -49t-68.5 -137zM197 600l194 256h70 l166 -246h-33l-178 162l-197 -172h-22z" />
<glyph unicode="&#xeb;" horiz-adv-x="790" d="M61 262q0 141 105 219q92 72 240 72q280 0 325 -242h-555q0 -137 55 -219q66 -96 197 -96q141 0 266 170l21 -12q-113 -184 -285 -185q-137 0 -246 76q-123 86 -123 217zM176 338h461q-4 86 -80 139q-70 47 -160 47q-92 0 -152.5 -49t-68.5 -137zM233 655q0 43 50 43 q47 0 47 -47t-51 -47q-45 0 -46 51zM496 655q0 43 51 43q47 0 47 -47t-53 -47q-45 0 -45 51z" />
<glyph unicode="&#xec;" horiz-adv-x="403" d="M-23 815q0 35 35 35q54 0 281 -238l-10 -12l-172 98q-133 82 -134 117zM66 0v25h110v475h-110v24h213v-499h110v-25h-323z" />
<glyph unicode="&#xed;" horiz-adv-x="403" d="M66 0v25h110v475h-110v24h213v-499h110v-25h-323zM90 616q137 137 137 138q109 100 150 100q31 0 31 -33q0 -53 -310 -219z" />
<glyph unicode="&#xee;" horiz-adv-x="403" d="M-25 600l197 256h70l164 -246h-31l-178 162l-197 -172h-25zM66 0v25h110v475h-110v24h213v-499h110v-25h-323z" />
<glyph unicode="&#xef;" horiz-adv-x="403" d="M35 649q0 45 49 45t49 -47t-53 -47q-45 0 -45 49zM66 0v25h110v475h-110v24h213v-499h110v-25h-323zM297 649q0 45 53 45q47 0 47 -47t-53 -47q-47 0 -47 49z" />
<glyph unicode="&#xf1;" horiz-adv-x="788" d="M66 0v25h110v475h-110v24h213v-88q94 117 194 117q127 0 133 -137q4 -96 0 -391h125v-25h-209v397q0 113 -73 113q-88 0 -170 -115v-370h110v-25h-323zM176 606q59 119 121 119q41 0 119 -22.5t116 -22.5q25 0 84 72l17 -9q-66 -115 -141 -114q-37 0 -108 21.5t-105 21.5 q-41 0 -89 -74z" />
<glyph unicode="&#xf2;" horiz-adv-x="821" d="M57 258q0 137 109 219q98 74 242 74q139 0 241 -80q113 -86 113 -221q0 -143 -113 -215q-94 -61 -248 -62q-139 0 -235 72q-109 78 -109 213zM164 287q0 -289 246 -289q241 0 241 260q0 125 -61 195q-68 76 -191 75q-111 0 -173 -65.5t-62 -175.5zM242 815q0 35 34 35 q54 0 281 -238l-10 -12l-172 98q-133 82 -133 117z" />
<glyph unicode="&#xf3;" horiz-adv-x="821" d="M57 258q0 137 109 219q98 74 242 74q139 0 241 -80q113 -86 113 -221q0 -143 -113 -215q-94 -61 -248 -62q-139 0 -235 72q-109 78 -109 213zM164 287q0 -289 246 -289q241 0 241 260q0 125 -61 195q-68 76 -191 75q-111 0 -173 -65.5t-62 -175.5zM274 616q70 70 140 138 q109 100 147 100q31 0 31 -33q0 -55 -307 -219z" />
<glyph unicode="&#xf4;" horiz-adv-x="821" d="M57 258q0 137 109 219q98 74 242 74q139 0 241 -80q113 -86 113 -221q0 -143 -113 -215q-94 -61 -248 -62q-139 0 -235 72q-109 78 -109 213zM164 287q0 -289 246 -289q241 0 241 260q0 125 -61 195q-68 76 -191 75q-111 0 -173 -65.5t-62 -175.5zM197 600l194 256h70 l166 -246h-33l-178 162l-197 -172h-22z" />
<glyph unicode="&#xf5;" horiz-adv-x="821" d="M57 258q0 137 109 219q98 74 242 74q139 0 241 -80q113 -86 113 -221q0 -143 -113 -215q-94 -61 -248 -62q-139 0 -235 72q-109 78 -109 213zM164 287q0 -289 246 -289q241 0 241 260q0 125 -61 195q-68 76 -191 75q-111 0 -173 -65.5t-62 -175.5zM201 606 q53 119 123 119q39 0 115.5 -22.5t115.5 -22.5q25 0 84 72l16 -9q-61 -115 -139 -114q-37 0 -108.5 21.5t-106.5 21.5q-47 0 -86 -74z" />
<glyph unicode="&#xf6;" horiz-adv-x="821" d="M57 258q0 137 109 219q98 74 242 74q139 0 241 -80q113 -86 113 -221q0 -143 -113 -215q-94 -61 -248 -62q-139 0 -235 72q-109 78 -109 213zM164 287q0 -289 246 -289q241 0 241 260q0 125 -61 195q-68 76 -191 75q-111 0 -173 -65.5t-62 -175.5zM233 657q0 45 50 45 q47 0 47 -47q0 -49 -51 -49q-45 0 -46 51zM496 657q0 45 51 45q47 0 47 -47q0 -49 -53 -49q-45 0 -45 51z" />
<glyph unicode="&#xf7;" horiz-adv-x="872" d="M84 -31l692 967h39l-692 -967h-39z" />
<glyph unicode="&#xf8;" horiz-adv-x="821" d="M59 274q0 125 111 205q100 74 231 74q55 0 91 -12l55 151h41l-60 -157q100 -27 167 -105t67 -180q0 -135 -107 -211q-96 -70 -237 -70q-55 0 -94 11l-72 -183h-37l68 187q-94 16 -159 104t-65 186zM164 283q0 -76 31 -156q39 -98 100 -109l186 500q-39 12 -82 12 q-111 0 -173 -67.5t-62 -179.5zM334 4q33 -8 74 -8q119 0 181 69.5t62 190.5q0 76 -33 147q-37 88 -100 103z" />
<glyph unicode="&#xf9;" horiz-adv-x="776" d="M61 500v24h211v-147q-2 -98 -2 -148q0 -125 2 -139q14 -92 78 -92q63 0 150 82v420h-78v24h289v-24h-111v-475h111v-25h-211v45q-86 -74 -148 -74q-190 0 -190 289q0 45 5 127t5 113h-111zM188 815q0 35 37 35q43 0 281 -238l-12 -12l-172 98q-133 80 -134 117z" />
<glyph unicode="&#xfa;" horiz-adv-x="776" d="M61 500v24h211v-147q-2 -98 -2 -148q0 -125 2 -139q14 -92 78 -92q63 0 150 82v420h-78v24h289v-24h-111v-475h111v-25h-211v45q-86 -74 -148 -74q-190 0 -190 289q0 45 5 127t5 113h-111zM301 616q238 238 285 238q30 0 30 -35q0 -53 -305 -217z" />
<glyph unicode="&#xfb;" horiz-adv-x="776" d="M61 500v24h211v-147q-2 -98 -2 -148q0 -125 2 -139q14 -92 78 -92q63 0 150 82v420h-78v24h289v-24h-111v-475h111v-25h-211v45q-86 -74 -148 -74q-190 0 -190 289q0 45 5 127t5 113h-111zM170 600l197 256h67l166 -246h-31l-180 162l-196 -172h-23z" />
<glyph unicode="&#xfc;" horiz-adv-x="776" d="M61 500v24h211v-147q-2 -98 -2 -148q0 -125 2 -139q14 -92 78 -92q63 0 150 82v420h-78v24h289v-24h-111v-475h111v-25h-211v45q-86 -74 -148 -74q-190 0 -190 289q0 45 5 127t5 113h-111zM229 655q0 43 52 43q47 0 47 -47t-54 -47q-45 0 -45 51zM494 655q0 43 51 43 q47 0 47 -47t-53 -47q-45 0 -45 51z" />
<glyph unicode="&#xff;" horiz-adv-x="829" d="M-383 -690q0 70 64 69q23 0 40 -16t17 -37q0 -55 -39 -65q63 -23 123 -23q125 0 241 144q61 78 154 251l184 353l-292 514h-97v24h285v-24h-78l232 -416q45 80 92 160q57 106 57 164q0 92 -135 92v24h350v-26q-80 2 -129 -56q-23 -25 -76 -125l-383 -720 q-94 -176 -157 -252q-115 -135 -250 -136q-203 0 -203 101zM250 649q0 45 51 45q49 0 49 -47t-55 -47q-45 0 -45 49zM514 649q0 45 53 45q47 0 47 -47t-55 -47q-45 0 -45 49z" />
<glyph unicode="&#x152;" horiz-adv-x="1845" d="M84 715q0 276 117 461q102 162 266 217q119 41 348 41h942v-267h-24q0 174 -107 222q-61 27 -264 24l-215 -2v-653q33 0 95.5 -3t92.5 -3q274 0 283 155h22v-350h-22q-6 125 -90 158q-43 18 -195 18h-186v-708h350q264 0 260 272h23v-297l-998 -2q-698 0 -698 717z M188 743q0 -367 117 -530q137 -197 490 -197q47 0 127 4q92 7 125 7v1380q-23 0 -105 4q-66 4 -106 4q-348 0 -498 -160.5t-150 -511.5z" />
<glyph unicode="&#x153;" horiz-adv-x="1380" d="M47 264q0 131 107 213q98 74 235 74q166 0 303 -127q100 129 291 129q287 0 332 -242h-555q4 -315 250 -315q145 0 270 170l20 -12q-117 -184 -286 -185q-195 0 -303 127q-86 -123 -322 -123q-143 0 -237 74q-104 80 -105 217zM154 289q0 -291 247 -291q240 0 240 258 q0 125 -61 197q-68 76 -191 75q-111 0 -173 -64.5t-62 -174.5zM760 338h461q0 84 -80 139q-70 47 -160 47q-92 0 -150 -47q-63 -51 -71 -139z" />
<glyph unicode="&#x178;" horiz-adv-x="1177" d="M47 1411v23h359v-23h-125l354 -620q92 145 184 288q139 227 139 281q0 59 -139 51v23h334v-23q-111 -12 -182 -131l-328 -532v-723h111v-25h-324v25h111v723l-381 663h-113zM463 1489q227 238 285 237q30 1 30 -32q0 -53 -305 -217z" />
<glyph unicode="&#x2c6;" horiz-adv-x="573" d="M84 1479l197 256h69l164 -246h-31l-178 162l-196 -172h-25z" />
<glyph unicode="&#x2dc;" horiz-adv-x="589" d="M80 1479q53 119 121 118q39 0 115.5 -22.5t115.5 -22.5q33 0 86 70l17 -6q-63 -119 -142 -119q-37 0 -106.5 22.5t-104.5 22.5q-43 0 -90 -76z" />
<glyph unicode="&#x2000;" horiz-adv-x="954" />
<glyph unicode="&#x2001;" horiz-adv-x="1909" />
<glyph unicode="&#x2002;" horiz-adv-x="954" />
<glyph unicode="&#x2003;" horiz-adv-x="1909" />
<glyph unicode="&#x2004;" horiz-adv-x="636" />
<glyph unicode="&#x2005;" horiz-adv-x="477" />
<glyph unicode="&#x2006;" horiz-adv-x="318" />
<glyph unicode="&#x2007;" horiz-adv-x="318" />
<glyph unicode="&#x2008;" horiz-adv-x="238" />
<glyph unicode="&#x2009;" horiz-adv-x="381" />
<glyph unicode="&#x200a;" horiz-adv-x="106" />
<glyph unicode="&#x2010;" horiz-adv-x="432" d="M90 260v92h293v-92h-293z" />
<glyph unicode="&#x2011;" horiz-adv-x="432" d="M90 260v92h293v-92h-293z" />
<glyph unicode="&#x2012;" horiz-adv-x="432" d="M90 260v92h293v-92h-293z" />
<glyph unicode="&#x2013;" horiz-adv-x="1714" d="M84 717v125h1571v-125h-1571z" />
<glyph unicode="&#x2014;" horiz-adv-x="2117" d="M84 559v68h1972v-68h-1972z" />
<glyph unicode="&#x2018;" horiz-adv-x="264" d="M100 1278q0 98 93 154l8 -11q-41 -41 -43 -73q59 -19 59 -62q0 -68 -61 -67q-55 0 -56 59z" />
<glyph unicode="&#x2019;" horiz-adv-x="262" d="M84 1372q0 61 66 62q51 -1 51 -62q0 -102 -92 -151l-11 8q41 45 43 76q-57 16 -57 67z" />
<glyph unicode="&#x201c;" horiz-adv-x="458" d="M100 1278q0 98 93 154l8 -11q-41 -41 -43 -73q59 -19 59 -62q0 -68 -61 -67q-55 0 -56 59zM297 1278q0 98 94 154l8 -11q-41 -41 -43 -73q60 -19 60 -70q0 -59 -64 -59q-55 0 -55 59z" />
<glyph unicode="&#x201d;" horiz-adv-x="450" d="M82 1372q0 61 65 62q52 -1 52 -62q0 -100 -93 -151l-10 8q41 45 43 76q-57 16 -57 67zM281 1372q0 61 65 62q51 -1 51 -62q0 -100 -92 -151l-10 8q41 45 43 76q-57 16 -57 67z" />
<glyph unicode="&#x201e;" horiz-adv-x="468" d="M76 37q0 59 65 59q52 0 52 -61q0 -106 -95 -152l-6 8q41 45 43 78q-59 12 -59 68zM274 37q0 59 66 59q51 0 51 -61q0 -96 -94 -152l-6 8q39 43 43 78q-59 12 -60 68z" />
<glyph unicode="&#x2022;" horiz-adv-x="307" d="M82 473q0 37 24.5 60.5t61.5 23.5q35 0 58.5 -24.5t23.5 -59.5t-23.5 -59.5t-58.5 -24.5t-60.5 24.5t-25.5 59.5z" />
<glyph unicode="&#x2026;" horiz-adv-x="233" d="M43 973v14h53v434h-53v13h102v-447h56v-14h-158z" />
<glyph unicode="&#x202f;" horiz-adv-x="381" />
<glyph unicode="&#x2039;" horiz-adv-x="380" d="M80 217v78l225 197l14 -15l-169 -219l167 -215l-12 -23z" />
<glyph unicode="&#x203a;" horiz-adv-x="374" d="M82 477l14 15l228 -197v-78l-228 -197l-12 23l168 215z" />
<glyph unicode="&#x205f;" horiz-adv-x="477" />
<glyph unicode="&#x2122;" horiz-adv-x="1339" d="M27 1348v86h442v-86h-8q-2 51 -20.5 63t-73.5 10l-88 -2v-692h57v-10h-168v10h59v692q-16 0 -49 3t-47 3q-94 0 -94 -77h-10zM502 717v10q70 0 92 33q8 16 22 98l82 508l-20 53h-72v15h123l156 -459l135 459h135v-15h-86l133 -692h72v-10h-191v10h66l-127 664l-145 -508 l-168 458q-25 -133 -50 -268q-31 -172 -30 -262q0 -84 84 -84v-10h-211z" />
<glyph unicode="&#x25fc;" horiz-adv-x="522" d="M0 0v522h522v-522h-522z" />
</font>
</defs>
</svg>
